<svg width="160" height="160" viewBox="0 0 160 160" fill="none" xmlns="http://www.w3.org/2000/svg">
  <rect width="160" height="160" rx="32" fill="#0F172A"/>
  <path d="M42 114V46H76C92.5685 46 104 54.9071 104 69C104 78.2638 98.8319 84.5843 90.7 87.4C100.104 89.5095 107 96.2634 107 107C107 122.029 94.5862 130 77 130H42V114ZM64 80H74.2C80.3346 80 84 76.9828 84 71.8C84 66.6172 80.3346 63.6 74.2 63.6H64V80ZM64 112.4H75.4C82.9452 112.4 87.4 109.072 87.4 103.2C87.4 97.3281 82.9452 94 75.4 94H64V112.4Z" fill="#F8FAFC"/>
  <path d="M109 60C118.389 66.6362 122.144 74.8355 120.2 84.6" stroke="#38BDF8" stroke-width="10" stroke-linecap="round"/>
</svg>
